# xmcd
#
# Track frame offsets:
#	150
#	12650
#	26625
#	37200
#	66750
#	78625
#	89075
#	115800
#	126425
#	141850
#	156775
#	171150
#	209825
#	223100
#	245250
#	266925
# Disc length: 3783 seconds
# Revision: 1
# Processed by: cddbd v1.5.1PL0 Copyright (c) Steve Scherf et al.
#
# Submitted via: libkcddb 0.10
#
DISCID=000ec510
DTITLE=Kings of Blues Harp - Special Edition
DYEAR=1900
DGENRE=
TTITLE0=Riding the El (Biffy Boy Arnold)
TTITLE1=What my mama told me (Carry Bell)
TTITLE2=Woman's lover blues (Sonny Terry)
TTITLE3=Mo's stroll (Mojo Buford)
TTITLE4=Hidden charms (Sonny Boy Williamson)
TTITLE5=I want to be loved (Paul DeLay)
TTITLE6=Walter and Carey's jam (Walter Horton and Carey Bett)
TTITLE7=Homework (James Cotton)
TTITLE8=Hoodoo man blues (Junior Wells)
TTITLE9=Done everything I can (King Biscuit Boy)
TTITLE10=Got my Mojo working (Paul Butterfield)
TTITLE11=Desert Island (Johnny Mars)
TTITLE12=Backtrack (Little Walter)
TTITLE13=Vivienne (Louisiana Red)
TTITLE14=It's not easy (Walter Horton)
TTITLE15=Chromatic blues (Charlie Sayles)
EXTD=
EXTT0=
EXTT1=
EXTT2=
EXTT3=
EXTT4=
EXTT5=
EXTT6=
EXTT7=
EXTT8=
EXTT9=
EXTT10=
EXTT11=
EXTT12=
EXTT13=
EXTT14=
EXTT15=
PLAYORDER=
